<?xml version="1.0" encoding="UTF-8" standalone="no"?>
<svg width="381px" height="132px" viewBox="0 0 381 132" version="1.1" xmlns="http://www.w3.org/2000/svg" xmlns:xlink="http://www.w3.org/1999/xlink">
    <!-- Generator: Sketch 3.8.3 (29802) - http://www.bohemiancoding.com/sketch -->
    <title>Group 2</title>
    <desc>Created with Sketch.</desc>
    <defs></defs>
    <g id="Direction-A" stroke="none" stroke-width="1" fill="none" fill-rule="evenodd">
        <g id="Behalf_Rebrand_logo_darkblue" transform="translate(-215.000000, -79.000000)">
            <g id="Group-2" transform="translate(215.000000, 79.000000)">
                <path d="M166.536292,72.9552634 L166.536292,72.7931983 C166.536292,64.5033814 160.905036,59.0562989 154.20792,59.0562989 C147.513644,59.0562989 141.634381,64.5844139 141.634381,72.7931983 L141.634381,72.9552634 C141.634381,81.2450804 147.513644,86.6902784 154.20792,86.6902784 C160.985496,86.6902784 166.536292,81.4071455 166.536292,72.9552634 M141.879547,87.6654956 L141.879547,94.3308929 L132,94.3308929 L132,35 L141.879547,35 L141.879547,58.5691614 C145.061979,54.1001228 149.553543,50.5233843 156.493932,50.5233843 C166.701945,50.5233843 176.582439,58.5691614 176.582439,72.7931983 L176.582439,72.9552634 C176.582439,87.1774159 166.782405,95.2250775 156.493932,95.2250775 C149.390729,95.2250775 144.899166,91.648339 141.879547,87.6654956" id="Fill-28" fill="#00354D"></path>
                <path d="M216.9256,71.3432204 C216.274347,65.0038377 212.517336,60.0457771 205.985874,60.0457771 C199.942851,60.0457771 195.6974,64.6787653 194.80098,71.3432204 L216.9256,71.3432204 Z M185,74.5129117 L185,74.3508466 C185,62.077244 193.737015,52 206.065387,52 C219.782405,52 226.725634,62.7273888 226.725634,75.0820239 C226.725634,75.9762086 226.642334,76.8703932 226.559981,77.8446681 L194.880494,77.8446681 C195.943513,84.8351378 200.923517,88.7350642 207.29122,88.7350642 C212.10841,88.7350642 215.536955,86.9476372 218.968339,83.616823 L224.766195,88.7350642 C220.682611,93.6130344 215.048515,96.7827258 207.128406,96.7827258 C194.634381,96.7827258 185,87.7617315 185,74.5129117 L185,74.5129117 Z" id="Fill-30" fill="#00354D"></path>
                <path d="M236,35 L245.879547,35 L245.879547,58.0820239 C248.656839,54.0190902 252.657123,50.5233843 259.351399,50.5233843 C269.068133,50.5233843 274.70223,57.024832 274.70223,67.0219857 L274.70223,94.3308929 L264.822682,94.3308929 L264.822682,69.9476372 C264.822682,63.2831821 261.473651,59.4642883 255.597228,59.4642883 C249.879832,59.4642883 245.879547,63.4471317 245.879547,70.1097022 L245.879547,94.3308929 L236,94.3308929 L236,35 Z" id="Fill-32" fill="#00354D"></path>
                <path d="M311.556289,77.6015705 C309.02511,76.6272956 305.517052,75.895176 301.676741,75.895176 C295.473745,75.895176 291.796247,78.4147226 291.796247,82.5605733 L291.796247,82.7226384 C291.796247,86.7865143 295.473745,89.0610788 300.125282,89.0610788 C306.659585,89.0610788 311.556289,85.40425 311.556289,80.0400845 L311.556289,77.6015705 Z M311.313962,95.564411 L311.313962,90.281278 C308.373857,93.776984 303.882293,96.4585956 297.350831,96.4585956 C289.185556,96.4585956 282,91.8256074 282,83.2097758 L282,83.0477108 C282,73.539579 289.430722,68.9876234 299.474029,68.9876234 C304.699199,68.9876234 308.048231,69.7178584 311.393475,70.7750504 L311.393475,69.9628405 C311.393475,64.0286205 307.639304,60.7778967 300.779375,60.7778967 C295.962185,60.7778967 292.370827,61.8350886 288.451003,63.4595083 L285.757011,55.5767385 C290.490902,53.4632969 295.145279,52 302.168021,52 C314.90532,52 321.110209,58.6653973 321.110209,70.1249056 L321.110209,95.564411 L311.313962,95.564411 Z" id="Fill-34" fill="#00354D"></path>
                <polygon id="Fill-36" fill="#00354D" points="335 35 344.879547 35 344.879547 94.3308929 335 94.3308929"></polygon>
                <path d="M359.471283,60.3584729 L354,60.3584729 L354,52.1496884 L359.471283,52.1496884 L359.471283,49.0610296 C359.471283,44.2659764 360.694276,40.6892379 362.979341,38.4146734 C365.268193,36.1372822 368.450625,35 372.696075,35 C376.12462,35 378.493932,35.4880797 380.699484,36.1372822 L380.699484,44.4280415 C378.739098,43.7778967 377.024826,43.3717918 374.902574,43.3717918 C371.144616,43.3717918 369.185178,45.4032586 369.185178,49.8741817 L369.185178,52.230721 L380.616184,52.230721 L380.616184,60.3584729 L369.347991,60.3584729 L369.347991,94.8189726 L359.471283,94.8189726 L359.471283,60.3584729 Z" id="Fill-38" fill="#00354D"></path>
                <g id="Logo-Mark">
                    <path d="M11.3474476,131.009419 C11.7847135,131.051338 12.2341168,131.072705 12.69478,131.072705 L21.5138165,131.113768 L21.5392941,123.365011 C21.5392941,122.123037 21.445114,120.982393 21.2572874,119.943917 C20.6277175,115.150206 16.5293069,111.449801 11.5672515,111.449801 C6.16928707,111.449801 1.79337232,115.828913 1.79337232,121.230822 C1.79337232,126.559217 6.05099523,130.892465 11.3474476,131.009419 Z" id="Combined-Shape" fill="#00354C" transform="translate(11.666333, 121.281784) scale(1, -1) translate(-11.666333, -121.281784) "></path>
                    <path d="M12.5189553,107.055316 L23.7206225,107.055316 L23.9952148,25.7526385 L12.8284614,25.7013099 C7.19884753,25.6994434 2.57890291,23.1936732 0,19.2031058 L0,113.568452 C2.63835073,109.640413 7.24602834,107.055316 12.5189553,107.055316" id="Fill-1" fill="#00AA9D"></path>
                    <path d="M71.4453106,93.6639994 C71.4453106,97.1720777 70.5403827,100.420713 68.828663,103.059004 C65.8751445,107.809236 61.999713,110.767631 51.8699937,110.767631 L26.1413561,110.767631 L26.1064423,121.019358 C26.1054987,125.211506 24.3579216,128.9193 21.5204678,131.49693 L52.6833909,131.49693 C75.4000058,131.49693 91.8878106,115.64385 91.8878106,93.80212 C91.8878106,83.1770944 88.0350259,73.671966 81.0031984,66.7621996 C76.0661988,72.2627619 69.6279059,76.2729275 62.2761925,78.5043229 C67.7472789,81.3217978 71.4453106,87.1489968 71.4453106,93.6639994" id="Fill-8" fill="#1B70B3"></path>
                    <path d="M26.4657594,13.2847818 L26.4317892,23.380656 L43.9990909,23.4618485 C47.7150512,23.4618485 50.800676,23.5850372 52.7520742,23.795018 C60.0471706,24.9186483 65.5503399,31.4943119 65.5503399,39.0862824 C65.5503399,42.3125199 64.73883,45.2597163 63.1620474,47.6786945 C61.9353464,49.6459807 60.567103,51.2446341 58.6081559,52.4195931 C67.3998275,53.4452324 75.2705297,56.7787933 81.6314461,62.2149615 C86.2070408,55.8968742 88.8236884,48.0370616 88.8236884,39.2253363 C88.8236884,16.4960873 71.7395181,0 48.204788,0 L20.8031189,0 C23.8104235,2.14833633 26.4657594,6.08010911 26.4657594,13.2847818" id="Fill-15" fill="#35AC46"></path>
                    <path d="M11.3474476,20.8158957 C11.7847135,20.8578148 12.2341168,20.8791816 12.69478,20.8791816 L21.5138165,20.9202445 L21.5392941,13.1714884 C21.5392941,11.9295136 21.445114,10.7888703 21.2572874,9.75039396 C20.6277175,4.95668314 16.5293069,1.25627795 11.5672515,1.25627795 C6.16928707,1.25627795 1.79337232,5.63539029 1.79337232,11.0372991 C1.79337232,16.3656942 6.05099523,20.6989416 11.3474476,20.8158957 Z" id="Combined-Shape" fill="#00354C"></path>
                    <path d="M37.8525602,65.7631906 C37.6834791,68.4649958 38.6307269,71.2228652 40.6945778,73.2867161 C42.5552945,75.1474327 44.9801356,76.1005323 47.4194148,76.1462155 C49.9838935,76.1942435 65.9622416,76.5133565 77.2248686,64.4531693 L77.2185673,64.4517815 L77.282078,64.4306292 C64.8205161,53.613774 48.9630554,55.6013311 46.4176455,55.917157 C43.9965041,56.217564 41.6845725,57.4189074 40.0285469,59.4639287 C38.5283008,61.3165784 37.8172615,63.5518131 37.8525602,65.7631906 Z" id="Combined-Shape" fill="#00364C"></path>
                </g>
            </g>
        </g>
    </g>
</svg>